# xmcd CD database file
#
# Track frame offsets:
#	150
#	14387
#	33550
#	54652
#	75967
#	92640
#	112412
#	131862
#	152387
#	173492
#
# Disc length: 2569 seconds
#
# Revision: 0
# Processed by: cddbd v1.5.1PL0 Copyright (c) Steve Scherf et al.
# Submitted via: CDex 1.51
#
DISCID=760a070a
DTITLE=TIME FIVE - That Ballad Once Again
DYEAR=1991
DGENRE=Jazz
TTITLE0=Overture
TTITLE1=Someone To Watch Over Me
TTITLE2=My Funny Valentine
TTITLE3=Sophisticated Lady
TTITLE4=You Are Too Beautiful
TTITLE5=Stella By Starlight
TTITLE6=Laura
TTITLE7=I'm A Fool To Want You
TTITLE8=They Say It's Wonderful
TTITLE9=That Ballad Once Again
EXTD=YEAR: 1991
EXTT0=
EXTT1=
EXTT2=
EXTT3=
EXTT4=
EXTT5=
EXTT6=
EXTT7=
EXTT8=
EXTT9=
PLAYORDER=
